<svg xmlns="http://www.w3.org/2000/svg" viewBox="0 0 64 64" role="img" aria-label="WhatsApp">
  <defs>
    <linearGradient id="wa" x1="8" y1="56" x2="56" y2="8" gradientUnits="userSpaceOnUse">
      <stop stop-color="#0cab55"/>
      <stop offset="1" stop-color="#25D366"/>
    </linearGradient>
  </defs>
  <circle cx="32" cy="32" r="30" fill="url(#wa)"/>
  <path fill="#fff" d="M32.1 13.2c-10 0-18.1 7.9-18.1 17.7 0 3.1.8 6.1 2.4 8.8l-2.6 9.3 9.7-2.5c2.6 1.4 5.5 2.1 8.6 2.1 10 0 18.1-7.9 18.1-17.7S42.1 13.2 32.1 13.2Zm0 31.8c-2.7 0-5.2-.7-7.4-2.1l-.5-.3-5.7 1.5 1.5-5.4-.3-.6c-1.5-2.2-2.2-4.7-2.2-7.3 0-7.8 6.5-14.1 14.6-14.1s14.6 6.3 14.6 14.1S40.2 45 32.1 45Z"/>
  <path fill="#fff" d="M40.2 34.6c-.4-.2-2.6-1.3-3-1.4-.4-.1-.7-.2-1 .2-.3.4-1.1 1.4-1.4 1.7-.3.3-.5.3-1 .1-.4-.2-1.8-.7-3.4-2.1-1.2-1.1-2.1-2.5-2.3-2.9-.2-.4 0-.7.2-.9.2-.2.4-.5.7-.8.2-.3.3-.4.5-.7.2-.3.1-.5 0-.8-.1-.2-1-2.4-1.4-3.3-.4-.9-.7-.8-1-.8h-.9c-.3 0-.8.1-1.2.6-.4.4-1.6 1.6-1.6 3.8s1.7 4.4 1.9 4.7c.2.3 3.2 4.9 7.8 6.8 1.1.5 1.9.7 2.6.9 1.1.3 2 .3 2.8.2.9-.1 2.6-1.1 3-2.1.4-1 .4-1.9.3-2.1-.1-.2-.4-.3-.8-.5Z"/>
</svg>
